<?xml version='1.0' encoding='UTF-8'?>
<svg width="41mm" height="41mm" version="1.1" viewBox="0 0 41 41" xmlns="http://www.w3.org/2000/svg"><rect width="41" height="41" fill="white"/><path d="M2,2H3V3H2zM3,2H4V3H3zM4,2H5V3H4zM5,2H6V3H5zM6,2H7V3H6zM7,2H8V3H7zM8,2H9V3H8zM12,2H13V3H12zM13,2H14V3H13zM15,2H16V3H15zM17,2H18V3H17zM19,2H20V3H19zM20,2H21V3H20zM23,2H24V3H23zM24,2H25V3H24zM26,2H27V3H26zM27,2H28V3H27zM30,2H31V3H30zM32,2H33V3H32zM33,2H34V3H33zM34,2H35V3H34zM35,2H36V3H35zM36,2H37V3H36zM37,2H38V3H37zM38,2H39V3H38zM2,3H3V4H2zM8,3H9V4H8zM12,3H13V4H12zM13,3H14V4H13zM14,3H15V4H14zM16,3H17V4H16zM18,3H19V4H18zM19,3H20V4H19zM22,3H23V4H22zM24,3H25V4H24zM28,3H29V4H28zM32,3H33V4H32zM38,3H39V4H38zM2,4H3V5H2zM4,4H5V5H4zM5,4H6V5H5zM6,4H7V5H6zM8,4H9V5H8zM11,4H12V5H11zM12,4H13V5H12zM13,4H14V5H13zM14,4H15V5H14zM15,4H16V5H15zM16,4H17V5H16zM19,4H20V5H19zM20,4H21V5H20zM21,4H22V5H21zM22,4H23V5H22zM26,4H27V5H26zM27,4H28V5H27zM30,4H31V5H30zM32,4H33V5H32zM34,4H35V5H34zM35,4H36V5H35zM36,4H37V5H36zM38,4H39V5H38zM2,5H3V6H2zM4,5H5V6H4zM5,5H6V6H5zM6,5H7V6H6zM8,5H9V6H8zM11,5H12V6H11zM13,5H14V6H13zM15,5H16V6H15zM17,5H18V6H17zM21,5H22V6H21zM22,5H23V6H22zM24,5H25V6H24zM25,5H26V6H25zM26,5H27V6H26zM27,5H28V6H27zM28,5H29V6H28zM29,5H30V6H29zM30,5H31V6H30zM32,5H33V6H32zM34,5H35V6H34zM35,5H36V6H35zM36,5H37V6H36zM38,5H39V6H38zM2,6H3V7H2zM4,6H5V7H4zM5,6H6V7H5zM6,6H7V7H6zM8,6H9V7H8zM10,6H11V7H10zM11,6H12V7H11zM12,6H13V7H12zM18,6H19V7H18zM19,6H20V7H19zM20,6H21V7H20zM26,6H27V7H26zM27,6H28V7H27zM29,6H30V7H29zM32,6H33V7H32zM34,6H35V7H34zM35,6H36V7H35zM36,6H37V7H36zM38,6H39V7H38zM2,7H3V8H2zM8,7H9V8H8zM12,7H13V8H12zM13,7H14V8H13zM15,7H16V8H15zM16,7H17V8H16zM17,7H18V8H17zM20,7H21V8H20zM24,7H25V8H24zM27,7H28V8H27zM30,7H31V8H30zM32,7H33V8H32zM38,7H39V8H38zM2,8H3V9H2zM3,8H4V9H3zM4,8H5V9H4zM5,8H6V9H5zM6,8H7V9H6zM7,8H8V9H7zM8,8H9V9H8zM10,8H11V9H10zM12,8H13V9H12zM14,8H15V9H14zM16,8H17V9H16zM18,8H19V9H18zM20,8H21V9H20zM22,8H23V9H22zM24,8H25V9H24zM26,8H27V9H26zM28,8H29V9H28zM30,8H31V9H30zM32,8H33V9H32zM33,8H34V9H33zM34,8H35V9H34zM35,8H36V9H35zM36,8H37V9H36zM37,8H38V9H37zM38,8H39V9H38zM10,9H11V10H10zM11,9H12V10H11zM12,9H13V10H12zM13,9H14V10H13zM16,9H17V10H16zM17,9H18V10H17zM20,9H21V10H20zM25,9H26V10H25zM26,9H27V10H26zM30,9H31V10H30zM4,10H5V11H4zM5,10H6V11H5zM8,10H9V11H8zM9,10H10V11H9zM10,10H11V11H10zM12,10H13V11H12zM13,10H14V11H13zM14,10H15V11H14zM15,10H16V11H15zM16,10H17V11H16zM17,10H18V11H17zM20,10H21V11H20zM29,10H30V11H29zM31,10H32V11H31zM32,10H33V11H32zM34,10H35V11H34zM2,11H3V12H2zM3,11H4V12H3zM4,11H5V12H4zM5,11H6V12H5zM6,11H7V12H6zM12,11H13V12H12zM14,11H15V12H14zM19,11H20V12H19zM21,11H22V12H21zM22,11H23V12H22zM24,11H25V12H24zM25,11H26V12H25zM28,11H29V12H28zM33,11H34V12H33zM35,11H36V12H35zM37,11H38V12H37zM2,12H3V13H2zM3,12H4V13H3zM5,12H6V13H5zM6,12H7V13H6zM8,12H9V13H8zM12,12H13V13H12zM13,12H14V13H13zM14,12H15V13H14zM15,12H16V13H15zM17,12H18V13H17zM18,12H19V13H18zM19,12H20V13H19zM22,12H23V13H22zM24,12H25V13H24zM27,12H28V13H27zM30,12H31V13H30zM31,12H32V13H31zM2,13H3V14H2zM3,13H4V14H3zM9,13H10V14H9zM12,13H13V14H12zM14,13H15V14H14zM17,13H18V14H17zM19,13H20V14H19zM21,13H22V14H21zM22,13H23V14H22zM23,13H24V14H23zM24,13H25V14H24zM27,13H28V14H27zM29,13H30V14H29zM30,13H31V14H30zM31,13H32V14H31zM33,13H34V14H33zM35,13H36V14H35zM36,13H37V14H36zM37,13H38V14H37zM2,14H3V15H2zM4,14H5V15H4zM8,14H9V15H8zM10,14H11V15H10zM11,14H12V15H11zM13,14H14V15H13zM15,14H16V15H15zM16,14H17V15H16zM19,14H20V15H19zM20,14H21V15H20zM21,14H22V15H21zM27,14H28V15H27zM28,14H29V15H28zM29,14H30V15H29zM31,14H32V15H31zM32,14H33V15H32zM33,14H34V15H33zM34,14H35V15H34zM36,14H37V15H36zM37,14H38V15H37zM2,15H3V16H2zM3,15H4V16H3zM4,15H5V16H4zM5,15H6V16H5zM10,15H11V16H10zM12,15H13V16H12zM13,15H14V16H13zM15,15H16V16H15zM16,15H17V16H16zM23,15H24V16H23zM25,15H26V16H25zM26,15H27V16H26zM29,15H30V16H29zM30,15H31V16H30zM32,15H33V16H32zM34,15H35V16H34zM38,15H39V16H38zM3,16H4V17H3zM6,16H7V17H6zM8,16H9V17H8zM9,16H10V17H9zM10,16H11V17H10zM12,16H13V17H12zM15,16H16V17H15zM16,16H17V17H16zM18,16H19V17H18zM19,16H20V17H19zM23,16H24V17H23zM25,16H26V17H25zM27,16H28V17H27zM28,16H29V17H28zM30,16H31V17H30zM32,16H33V17H32zM33,16H34V17H33zM37,16H38V17H37zM2,17H3V18H2zM3,17H4V18H3zM7,17H8V18H7zM10,17H11V18H10zM13,17H14V18H13zM15,17H16V18H15zM16,17H17V18H16zM20,17H21V18H20zM21,17H22V18H21zM24,17H25V18H24zM29,17H30V18H29zM32,17H33V18H32zM34,17H35V18H34zM37,17H38V18H37zM38,17H39V18H38zM4,18H5V19H4zM8,18H9V19H8zM11,18H12V19H11zM12,18H13V19H12zM17,18H18V19H17zM19,18H20V19H19zM22,18H23V19H22zM24,18H25V19H24zM25,18H26V19H25zM27,18H28V19H27zM29,18H30V19H29zM30,18H31V19H30zM36,18H37V19H36zM37,18H38V19H37zM2,19H3V20H2zM5,19H6V20H5zM9,19H10V20H9zM13,19H14V20H13zM15,19H16V20H15zM16,19H17V20H16zM17,19H18V20H17zM18,19H19V20H18zM21,19H22V20H21zM24,19H25V20H24zM27,19H28V20H27zM28,19H29V20H28zM29,19H30V20H29zM30,19H31V20H30zM31,19H32V20H31zM32,19H33V20H32zM38,19H39V20H38zM3,20H4V21H3zM4,20H5V21H4zM6,20H7V21H6zM8,20H9V21H8zM9,20H10V21H9zM10,20H11V21H10zM11,20H12V21H11zM12,20H13V21H12zM13,20H14V21H13zM14,20H15V21H14zM18,20H19V21H18zM19,20H20V21H19zM22,20H23V21H22zM23,20H24V21H23zM26,20H27V21H26zM29,20H30V21H29zM32,20H33V21H32zM33,20H34V21H33zM34,20H35V21H34zM35,20H36V21H35zM37,20H38V21H37zM38,20H39V21H38zM3,21H4V22H3zM7,21H8V22H7zM9,21H10V22H9zM11,21H12V22H11zM14,21H15V22H14zM17,21H18V22H17zM20,21H21V22H20zM22,21H23V22H22zM23,21H24V22H23zM25,21H26V22H25zM26,21H27V22H26zM29,21H30V22H29zM31,21H32V22H31zM34,21H35V22H34zM35,21H36V22H35zM37,21H38V22H37zM38,21H39V22H38zM2,22H3V23H2zM3,22H4V23H3zM4,22H5V23H4zM7,22H8V23H7zM8,22H9V23H8zM10,22H11V23H10zM13,22H14V23H13zM18,22H19V23H18zM19,22H20V23H19zM20,22H21V23H20zM21,22H22V23H21zM24,22H25V23H24zM25,22H26V23H25zM29,22H30V23H29zM30,22H31V23H30zM31,22H32V23H31zM34,22H35V23H34zM38,22H39V23H38zM5,23H6V24H5zM6,23H7V24H6zM7,23H8V24H7zM10,23H11V24H10zM12,23H13V24H12zM14,23H15V24H14zM16,23H17V24H16zM17,23H18V24H17zM18,23H19V24H18zM21,23H22V24H21zM22,23H23V24H22zM24,23H25V24H24zM28,23H29V24H28zM30,23H31V24H30zM31,23H32V24H31zM33,23H34V24H33zM35,23H36V24H35zM36,23H37V24H36zM37,23H38V24H37zM3,24H4V25H3zM7,24H8V25H7zM8,24H9V25H8zM15,24H16V25H15zM23,24H24V25H23zM24,24H25V25H24zM26,24H27V25H26zM32,24H33V25H32zM33,24H34V25H33zM34,24H35V25H34zM35,24H36V25H35zM37,24H38V25H37zM2,25H3V26H2zM4,25H5V26H4zM5,25H6V26H5zM6,25H7V26H6zM7,25H8V26H7zM11,25H12V26H11zM12,25H13V26H12zM13,25H14V26H13zM14,25H15V26H14zM15,25H16V26H15zM17,25H18V26H17zM20,25H21V26H20zM21,25H22V26H21zM22,25H23V26H22zM23,25H24V26H23zM27,25H28V26H27zM28,25H29V26H28zM33,25H34V26H33zM35,25H36V26H35zM36,25H37V26H36zM38,25H39V26H38zM2,26H3V27H2zM5,26H6V27H5zM7,26H8V27H7zM8,26H9V27H8zM9,26H10V27H9zM10,26H11V27H10zM11,26H12V27H11zM12,26H13V27H12zM15,26H16V27H15zM17,26H18V27H17zM18,26H19V27H18zM20,26H21V27H20zM22,26H23V27H22zM23,26H24V27H23zM24,26H25V27H24zM29,26H30V27H29zM31,26H32V27H31zM32,26H33V27H32zM33,26H34V27H33zM34,26H35V27H34zM35,26H36V27H35zM36,26H37V27H36zM3,27H4V28H3zM4,27H5V28H4zM6,27H7V28H6zM7,27H8V28H7zM9,27H10V28H9zM10,27H11V28H10zM12,27H13V28H12zM13,27H14V28H13zM16,27H17V28H16zM18,27H19V28H18zM19,27H20V28H19zM20,27H21V28H20zM24,27H25V28H24zM25,27H26V28H25zM28,27H29V28H28zM29,27H30V28H29zM30,27H31V28H30zM31,27H32V28H31zM32,27H33V28H32zM34,27H35V28H34zM37,27H38V28H37zM38,27H39V28H38zM3,28H4V29H3zM6,28H7V29H6zM7,28H8V29H7zM8,28H9V29H8zM9,28H10V29H9zM11,28H12V29H11zM14,28H15V29H14zM15,28H16V29H15zM16,28H17V29H16zM18,28H19V29H18zM19,28H20V29H19zM20,28H21V29H20zM21,28H22V29H21zM22,28H23V29H22zM26,28H27V29H26zM28,28H29V29H28zM32,28H33V29H32zM35,28H36V29H35zM37,28H38V29H37zM2,29H3V30H2zM5,29H6V30H5zM6,29H7V30H6zM9,29H10V30H9zM10,29H11V30H10zM16,29H17V30H16zM17,29H18V30H17zM18,29H19V30H18zM19,29H20V30H19zM21,29H22V30H21zM22,29H23V30H22zM24,29H25V30H24zM26,29H27V30H26zM28,29H29V30H28zM6,30H7V31H6zM7,30H8V31H7zM8,30H9V31H8zM10,30H11V31H10zM11,30H12V31H11zM13,30H14V31H13zM16,30H17V31H16zM17,30H18V31H17zM18,30H19V31H18zM20,30H21V31H20zM22,30H23V31H22zM23,30H24V31H23zM25,30H26V31H25zM26,30H27V31H26zM27,30H28V31H27zM30,30H31V31H30zM31,30H32V31H31zM32,30H33V31H32zM33,30H34V31H33zM34,30H35V31H34zM35,30H36V31H35zM36,30H37V31H36zM37,30H38V31H37zM10,31H11V32H10zM11,31H12V32H11zM14,31H15V32H14zM15,31H16V32H15zM20,31H21V32H20zM23,31H24V32H23zM25,31H26V32H25zM26,31H27V32H26zM27,31H28V32H27zM29,31H30V32H29zM30,31H31V32H30zM34,31H35V32H34zM36,31H37V32H36zM37,31H38V32H37zM38,31H39V32H38zM2,32H3V33H2zM3,32H4V33H3zM4,32H5V33H4zM5,32H6V33H5zM6,32H7V33H6zM7,32H8V33H7zM8,32H9V33H8zM10,32H11V33H10zM11,32H12V33H11zM14,32H15V33H14zM19,32H20V33H19zM20,32H21V33H20zM21,32H22V33H21zM22,32H23V33H22zM26,32H27V33H26zM27,32H28V33H27zM30,32H31V33H30zM32,32H33V33H32zM34,32H35V33H34zM36,32H37V33H36zM37,32H38V33H37zM38,32H39V33H38zM2,33H3V34H2zM8,33H9V34H8zM12,33H13V34H12zM13,33H14V34H13zM16,33H17V34H16zM21,33H22V34H21zM22,33H23V34H22zM24,33H25V34H24zM26,33H27V34H26zM28,33H29V34H28zM29,33H30V34H29zM30,33H31V34H30zM34,33H35V34H34zM2,34H3V35H2zM4,34H5V35H4zM5,34H6V35H5zM6,34H7V35H6zM8,34H9V35H8zM11,34H12V35H11zM12,34H13V35H12zM14,34H15V35H14zM15,34H16V35H15zM19,34H20V35H19zM20,34H21V35H20zM22,34H23V35H22zM23,34H24V35H23zM28,34H29V35H28zM30,34H31V35H30zM31,34H32V35H31zM32,34H33V35H32zM33,34H34V35H33zM34,34H35V35H34zM35,34H36V35H35zM37,34H38V35H37zM38,34H39V35H38zM2,35H3V36H2zM4,35H5V36H4zM5,35H6V36H5zM6,35H7V36H6zM8,35H9V36H8zM10,35H11V36H10zM11,35H12V36H11zM13,35H14V36H13zM14,35H15V36H14zM15,35H16V36H15zM18,35H19V36H18zM20,35H21V36H20zM21,35H22V36H21zM22,35H23V36H22zM23,35H24V36H23zM24,35H25V36H24zM27,35H28V36H27zM28,35H29V36H28zM31,35H32V36H31zM32,35H33V36H32zM34,35H35V36H34zM35,35H36V36H35zM36,35H37V36H36zM2,36H3V37H2zM4,36H5V37H4zM5,36H6V37H5zM6,36H7V37H6zM8,36H9V37H8zM10,36H11V37H10zM11,36H12V37H11zM13,36H14V37H13zM14,36H15V37H14zM15,36H16V37H15zM16,36H17V37H16zM24,36H25V37H24zM28,36H29V37H28zM31,36H32V37H31zM32,36H33V37H32zM33,36H34V37H33zM34,36H35V37H34zM36,36H37V37H36zM37,36H38V37H37zM2,37H3V38H2zM8,37H9V38H8zM12,37H13V38H12zM15,37H16V38H15zM16,37H17V38H16zM17,37H18V38H17zM19,37H20V38H19zM21,37H22V38H21zM22,37H23V38H22zM23,37H24V38H23zM25,37H26V38H25zM26,37H27V38H26zM27,37H28V38H27zM29,37H30V38H29zM32,37H33V38H32zM35,37H36V38H35zM36,37H37V38H36zM2,38H3V39H2zM3,38H4V39H3zM4,38H5V39H4zM5,38H6V39H5zM6,38H7V39H6zM7,38H8V39H7zM8,38H9V39H8zM13,38H14V39H13zM14,38H15V39H14zM15,38H16V39H15zM17,38H18V39H17zM19,38H20V39H19zM21,38H22V39H21zM22,38H23V39H22zM24,38H25V39H24zM25,38H26V39H25zM27,38H28V39H27zM32,38H33V39H32zM33,38H34V39H33zM34,38H35V39H34zM35,38H36V39H35zM36,38H37V39H36zM37,38H38V39H37zM38,38H39V39H38z" id="qr-path" fill="#000000" fill-opacity="1" fill-rule="nonzero" stroke="none"/><circle cx="20.5" cy="20.5" r="3.69" fill="#F7931A"/><text x="20.5" y="21.90" text-anchor="middle" font-family="sans-serif" font-size="4.43" font-weight="bold" fill="white">₿</text>
</svg>